<svg xmlns="http://www.w3.org/2000/svg" xmlns:xlink="http://www.w3.org/1999/xlink" viewBox="0 0 1000 1000" width="1000" height="1000" preserveAspectRatio="xMidYMid meet" style="width: 100%; height: 100%; transform: translate3d(0px, 0px, 0px); content-visibility: visible;" id="Man Thinking About Payment Method"><defs><clipPath id="__lottie_element_34544"><rect width="1000" height="1000" x="0" y="0"/></clipPath></defs><g clip-path="url(#__lottie_element_34544)"><g transform="matrix(1,0,0,1,500,500)" opacity="1" style="display: block;"><g opacity="1" transform="matrix(1,0,0,1,0,0)"><path fill="rgb(209,209,255)" fill-opacity="1" d=" M371.6440124511719,25.64699935913086 C371.6440124511719,230.45399475097656 205.61599731445312,396.48199462890625 0.8090000152587891,396.48199462890625 C-203.9980010986328,396.48199462890625 -370.0270080566406,230.45399475097656 -370.0270080566406,25.64699935913086 C-370.0270080566406,-179.16000366210938 -203.9980010986328,-345.1889953613281 0.8090000152587891,-345.1889953613281 C205.61599731445312,-345.1889953613281 371.6440124511719,-179.16000366210938 371.6440124511719,25.64699935913086z"/></g></g><g transform="matrix(1,0,0,1,528.3798828125,500)" opacity="1" style="display: block;"><g opacity="1" transform="matrix(1,0,0,1,0,0)"><path fill="rgb(83,216,106)" fill-opacity="1" d=" M350.7640075683594,43.97700119018555 C344.6470031738281,37.86000061035156 335.7449951171875,36.255001068115234 328.14599609375,39.124000549316406 C328.0679931640625,33.77199935913086 326,28.444000244140625 321.9159851074219,24.360000610351562 C313.5889892578125,16.033000946044922 300.0880126953125,16.033000946044922 291.760986328125,24.360000610351562 C286.3210144042969,29.799999237060547 284.4590148925781,37.44300079345703 286.12701416015625,44.41400146484375 C285.44500732421875,43.45500183105469 284.69500732421875,42.52899932861328 283.8349914550781,41.66899871826172 C275.50799560546875,33.34199905395508 262.0069885253906,33.34199905395508 253.67999267578125,41.66899871826172 C249.96499633789062,45.38399887084961 247.91900634765625,50.12900161743164 247.5189971923828,54.98400115966797 C245.125,51.51900100708008 241.12899780273438,49.24599838256836 236.5989990234375,49.24599838256836 C229.27000427246094,49.24599838256836 223.32899475097656,55.1870002746582 223.32899475097656,62.51599884033203 C223.32899475097656,63.10300064086914 223.3719940185547,63.68000030517578 223.4459991455078,64.24700164794922 C223.4459991455078,64.24700164794922 356.34600830078125,64.24700164794922 356.34600830078125,64.24700164794922 C358.1050109863281,57.21799850463867 356.260009765625,49.472999572753906 350.7640075683594,43.97700119018555z"/></g></g><g transform="matrix(1,0,0,1,541.211181640625,500)" opacity="1" style="display: block;"><g opacity="1" transform="matrix(1,0,0,1,0,0)"><path fill="rgb(83,216,106)" fill-opacity="1" d=" M336.67999267578125,-228.7790069580078 C320.885986328125,-244.572998046875 297.8970031738281,-248.718994140625 278.2760009765625,-241.3090057373047 C278.0740051269531,-255.12899780273438 272.7330017089844,-268.8890075683594 262.18798828125,-279.4339904785156 C240.68600463867188,-300.9360046386719 205.8249969482422,-300.9360046386719 184.322998046875,-279.4339904785156 C170.2760009765625,-265.3869934082031 165.46800231933594,-245.64999389648438 169.77499389648438,-227.6490020751953 C168.01300048828125,-230.125 166.07899475097656,-232.51699829101562 163.85800170898438,-234.73800659179688 C142.3560028076172,-256.239990234375 107.49600219726562,-256.239990234375 85.99400329589844,-234.73800659179688 C76.4020004272461,-225.14599609375 71.11799621582031,-212.8939971923828 70.08399963378906,-200.3560028076172 C63.9010009765625,-209.30299377441406 53.584999084472656,-215.1739959716797 41.887001037597656,-215.1739959716797 C22.961999893188477,-215.1739959716797 7.620999813079834,-199.83200073242188 7.620999813079834,-180.90699768066406 C7.620999813079834,-179.39100646972656 7.73199987411499,-177.90199279785156 7.923999786376953,-176.43800354003906 C7.923999786376953,-176.43800354003906 351.0920104980469,-176.43800354003906 351.0920104980469,-176.43800354003906 C355.635009765625,-194.58700561523438 350.87200927734375,-214.58700561523438 336.67999267578125,-228.7790069580078z"/></g></g><g transform="matrix(1,0,0,1,465.430908203125,500)" opacity="1" style="display: block;"><g opacity="1" transform="matrix(1,0,0,1,0,0)"><path fill="rgb(83,216,106)" fill-opacity="1" d=" M-94.59100341796875,-126.06800079345703 C-101.31700134277344,-132.79400634765625 -111.10700225830078,-134.55999755859375 -119.46299743652344,-131.40499877929688 C-119.54900360107422,-137.2899932861328 -121.8239974975586,-143.1490020751953 -126.31400299072266,-147.63999938964844 C-135.4709930419922,-156.7969970703125 -150.3159942626953,-156.7969970703125 -159.47300720214844,-147.63999938964844 C-165.4550018310547,-141.6580047607422 -167.5030059814453,-133.2530059814453 -165.66900634765625,-125.58699798583984 C-166.41900634765625,-126.64199829101562 -167.2429962158203,-127.66000366210938 -168.18899536132812,-128.6060028076172 C-177.3459930419922,-137.76199340820312 -192.19200134277344,-137.76199340820312 -201.34800720214844,-128.6060028076172 C-205.43299865722656,-124.52100372314453 -207.68299865722656,-119.3030014038086 -208.1230010986328,-113.96399688720703 C-210.75599670410156,-117.77400207519531 -215.14999389648438,-120.2750015258789 -220.1320037841797,-120.2750015258789 C-228.1909942626953,-120.2750015258789 -234.7239990234375,-113.74099731445312 -234.7239990234375,-105.68199920654297 C-234.7239990234375,-105.03600311279297 -234.677001953125,-104.4020004272461 -234.59500122070312,-103.77899932861328 C-234.59500122070312,-103.77899932861328 -88.4530029296875,-103.77899932861328 -88.4530029296875,-103.77899932861328 C-86.51899719238281,-111.50800323486328 -88.5469970703125,-120.02400207519531 -94.59100341796875,-126.06800079345703z"/></g></g><g transform="matrix(0.7319536805152893,0.09481333941221237,-0.09481333941221237,0.7319536805152893,501.700927734375,496.63580322265625)" opacity="1" style="display: block;"><g opacity="1" transform="matrix(1,0,0,1,0,0)"><path fill="rgb(254,148,37)" fill-opacity="1" d=" M304.9679870605469,-105.42900085449219 C303.6180114746094,-101.06300354003906 301.70001220703125,-97.33599853515625 299.2179870605469,-94.25199890136719 C296.7349853515625,-91.16500091552734 293.9849853515625,-88.3949966430664 290.968994140625,-85.94000244140625 C287.95001220703125,-83.48500061035156 284.7669982910156,-81.24700164794922 281.41900634765625,-79.22799682617188 C278.07000732421875,-77.2040023803711 274.9150085449219,-75.05999755859375 271.9519958496094,-72.78900146484375 C268.989013671875,-70.51599884033203 266.322998046875,-68.01699829101562 263.95599365234375,-65.29499816894531 C263.3380126953125,-64.58699798583984 262.7619934082031,-63.84299850463867 262.22698974609375,-63.064998626708984 C259.3559875488281,-58.888999938964844 254.19500732421875,-56.952999114990234 249.35400390625,-58.45000076293945 C249.35400390625,-58.45000076293945 248.08399963378906,-58.84299850463867 248.08399963378906,-58.84299850463867 C240.89700317382812,-61.066001892089844 237.63099670410156,-69.69999694824219 241.96200561523438,-75.8499984741211 C241.98800659179688,-75.88700103759766 242.01300048828125,-75.9229965209961 242.03900146484375,-75.95999908447266 C244.6269989013672,-79.61000061035156 247.39999389648438,-82.77300262451172 250.35499572753906,-85.447998046875 C253.30599975585938,-88.12200164794922 256.3580017089844,-90.46700286865234 259.5060119628906,-92.48300170898438 C262.6549987792969,-94.4990005493164 265.6109924316406,-96.54000091552734 268.3789978027344,-98.60900115966797 C271.1419982910156,-100.67400360107422 273.62298583984375,-102.89700317382812 275.8219909667969,-105.2760009765625 C278.0159912109375,-107.6520004272461 279.6619873046875,-110.59700012207031 280.75,-114.11499786376953 C281.31298828125,-115.93499755859375 281.59100341796875,-117.80799865722656 281.5880126953125,-119.73600006103516 C281.5880126953125,-121.66000366210938 281.2239990234375,-123.50199890136719 280.5050048828125,-125.25299835205078 C279.7820129394531,-127.00299835205078 278.6130065917969,-128.59500122070312 276.99798583984375,-130.0260009765625 C275.37799072265625,-131.4550018310547 273.2359924316406,-132.58399963378906 270.5719909667969,-133.4080047607422 C269.7200012207031,-133.67100524902344 268.70098876953125,-133.91799926757812 267.5140075683594,-134.15499877929688 C266.3219909667969,-134.38900756835938 265.02099609375,-134.5919952392578 263.614990234375,-134.76199340820312 C261.72100830078125,-135.07899475097656 259.2690124511719,-135.20899963378906 256.25799560546875,-135.14500427246094 C253.24899291992188,-135.0780029296875 250.30099487304688,-134.8939971923828 247.41700744628906,-134.58999633789062 C247.41700744628906,-134.58999633789062 247.31399536132812,-134.5780029296875 247.31399536132812,-134.5780029296875 C241.87399291992188,-133.947998046875 237.19700622558594,-138.41000366210938 237.5709991455078,-143.87399291992188 C237.5709991455078,-143.87399291992188 237.80099487304688,-147.24600219726562 237.80099487304688,-147.24600219726562 C238.0760040283203,-151.26699829101562 241.0449981689453,-154.57899475097656 245.01800537109375,-155.25100708007812 C245.30099487304688,-155.2989959716797 245.58799743652344,-155.3470001220703 245.88099670410156,-155.39599609375 C248.95700073242188,-155.90499877929688 252.34300231933594,-156.2169952392578 256.0369873046875,-156.33900451660156 C259.72698974609375,-156.4600067138672 263.5849914550781,-156.36300659179688 267.6080017089844,-156.0500030517578 C271.62701416015625,-155.73500061035156 275.5790100097656,-154.97900390625 279.4630126953125,-153.7779998779297 C284.1929931640625,-152.31500244140625 288.5639953613281,-150.13299560546875 292.5830078125,-147.22900390625 C296.60101318359375,-144.322998046875 299.95001220703125,-140.33200073242188 302.6340026855469,-135.25100708007812 C303.9309997558594,-132.58799743652344 304.9599914550781,-129.6790008544922 305.7120056152344,-126.5250015258789 C306.3340148925781,-123.80799865722656 306.6860046386719,-120.64299774169922 306.7640075683594,-117.03199768066406 C306.84100341796875,-113.41999816894531 306.2430114746094,-109.5510025024414 304.9679870605469,-105.42900085449219z"/></g><g opacity="1" transform="matrix(1,0,0,1,0,0)"><path fill="rgb(254,148,37)" fill-opacity="1" d=" M235.38400268554688,-39.29499816894531 C238.8990020751953,-38.20800018310547 241.49600219726562,-36.07400131225586 243.1750030517578,-32.900001525878906 C244.8459930419922,-29.722000122070312 245.14100646972656,-26.375999450683594 244.05299377441406,-22.861000061035156 C242.96400451660156,-19.340999603271484 240.82200622558594,-16.715999603271484 237.6320037841797,-14.979999542236328 C234.43499755859375,-13.246999740600586 231.0780029296875,-12.92199993133545 227.56300354003906,-14.008999824523926 C224.04400634765625,-15.097999572753906 221.42799377441406,-17.270999908447266 219.71099853515625,-20.523000717163086 C217.99400329589844,-23.777999877929688 217.68099975585938,-27.160999298095703 218.77000427246094,-30.680999755859375 C219.85699462890625,-34.19599914550781 222.01600646972656,-36.78200149536133 225.2530059814453,-38.44200134277344 C228.48800659179688,-40.09700012207031 231.86500549316406,-40.38399887084961 235.38400268554688,-39.29499816894531z"/></g></g><g transform="matrix(0.183946430683136,0.2518542408943176,-0.2518542408943176,0.183946430683136,458.7662353515625,587.572021484375)" opacity="1" style="display: block;"><g opacity="1" transform="matrix(1,0,0,1,0,0)"><path fill="rgb(88,91,212)" fill-opacity="1" d=" M-77.07099914550781,-152.84300231933594 C-77.07099914550781,-152.84300231933594 -229.27999877929688,-0.6349999904632568 -229.27999877929688,-0.6349999904632568 C-229.27999877929688,-0.6349999904632568 -306.8450012207031,-78.1989974975586 -306.8450012207031,-78.1989974975586 C-306.8450012207031,-78.1989974975586 -154.63600158691406,-230.40899658203125 -154.63600158691406,-230.40899658203125 C-154.63600158691406,-230.40899658203125 -77.07099914550781,-152.84300231933594 -77.07099914550781,-152.84300231933594z"/></g><g opacity="1" transform="matrix(1,0,0,1,0,0)"><g opacity="1" transform="matrix(1,0,0,1,0,0)"><path fill="rgb(255,255,255)" fill-opacity="1" d=" M-100.74199676513672,-157.6909942626953 C-100.74199676513672,-157.6909942626953 -149.78799438476562,-206.73699951171875 -149.78799438476562,-206.73699951171875 C-152.375,-204.1490020751953 -156.5709991455078,-204.1490020751953 -159.15899658203125,-206.73699951171875 C-159.15899658203125,-206.73699951171875 -283.1730041503906,-82.7229995727539 -283.1730041503906,-82.7229995727539 C-280.58599853515625,-80.13500213623047 -280.58599853515625,-75.93900299072266 -283.1730041503906,-73.35099792480469 C-283.1730041503906,-73.35099792480469 -234.1269989013672,-24.30500030517578 -234.1269989013672,-24.30500030517578 C-231.53900146484375,-26.89299964904785 -227.343994140625,-26.89299964904785 -224.75599670410156,-24.305999755859375 C-224.75599670410156,-24.305999755859375 -100.74199676513672,-148.32000732421875 -100.74199676513672,-148.32000732421875 C-103.33000183105469,-150.90699768066406 -103.3290023803711,-155.10299682617188 -100.74199676513672,-157.6909942626953z"/></g></g><g opacity="1" transform="matrix(1,0,0,1,0,0)"><path fill="rgb(88,91,212)" fill-opacity="1" d=" M-172.64700317382812,-134.83200073242188 C-161.98199462890625,-124.16699981689453 -161.98199462890625,-106.8759994506836 -172.64700317382812,-96.21099853515625 C-183.31199645996094,-85.5459976196289 -200.60299682617188,-85.5459976196289 -211.26800537109375,-96.21099853515625 C-221.93299865722656,-106.8759994506836 -221.93299865722656,-124.16699981689453 -211.26800537109375,-134.83200073242188 C-200.60299682617188,-145.4969940185547 -183.31199645996094,-145.4969940185547 -172.64700317382812,-134.83200073242188z"/></g><g opacity="1" transform="matrix(1,0,0,1,0,0)"/></g><g transform="matrix(0.3081575930118561,0.04801807180047035,-0.04801807180047035,0.3081575930118561,473.1482849121094,527.7543334960938)" opacity="1" fill="rgb(33,34,105)" font-size="56.5739288330078" font-family="Javanese Text" font-style="normal" font-weight="400" aria-label="$" style="display: block;"><g stroke-linecap="butt" stroke-linejoin="round" stroke-miterlimit="4" transform="matrix(1,0,0,1,-14.765795707702637,0)" opacity="1" style="display: inherit;"><g><g transform="matrix(1,0,0,1,0,0)" opacity="1" style="display: block;"><path d=" M21.09,-4.99 C20.81,-4.33 20.41,-3.78 19.92,-3.33 C19.42,-2.88 18.83,-2.52 18.16,-2.27 C17.49,-2.01 16.78,-1.83 16.02,-1.74 C16.02,-1.74 16.02,-12.98 16.02,-12.98 C16.94,-12.65 17.75,-12.31 18.44,-11.95 C19.13,-11.59 19.7,-11.19 20.15,-10.76 C20.6,-10.33 20.94,-9.83 21.17,-9.27 C21.4,-8.71 21.52,-8.05 21.52,-7.29 C21.52,-6.41 21.38,-5.64 21.09,-4.99z M8.84,-26.89 C9.13,-27.55 9.54,-28.09 10.05,-28.54 C10.57,-28.98 11.16,-29.32 11.84,-29.56 C12.51,-29.8 13.23,-29.96 14.01,-30.05 C14.01,-30.05 14.01,-19.06 14.01,-19.06 C13.03,-19.41 12.19,-19.75 11.49,-20.08 C10.79,-20.41 10.21,-20.78 9.75,-21.19 C9.29,-21.59 8.95,-22.07 8.73,-22.61 C8.51,-23.15 8.4,-23.8 8.4,-24.56 C8.4,-25.46 8.54,-26.24 8.84,-26.89z M13.87,-1.66 C12.93,-1.69 11.93,-1.85 10.88,-2.13 C9.83,-2.4 8.89,-2.89 8.04,-3.59 C8.63,-4.01 9.06,-4.51 9.32,-5.08 C9.59,-5.65 9.72,-6.26 9.72,-6.91 C9.72,-7.46 9.63,-7.94 9.45,-8.36 C9.26,-8.77 9.02,-9.11 8.72,-9.38 C8.41,-9.64 8.07,-9.84 7.68,-9.97 C7.29,-10.1 6.89,-10.17 6.46,-10.17 C5.41,-10.17 4.58,-9.82 3.96,-9.14 C3.35,-8.46 3.04,-7.62 3.04,-6.63 C3.04,-5.71 3.31,-4.83 3.84,-3.99 C4.37,-3.15 5.12,-2.41 6.08,-1.75 C7.03,-1.1 8.18,-0.57 9.5,-0.17 C10.83,0.24 12.28,0.46 13.87,0.5 C13.87,0.5 13.87,5.53 13.87,5.53 C13.87,5.53 16.02,5.53 16.02,5.53 C16.02,5.53 16.02,0.41 16.02,0.41 C17.42,0.29 18.76,0 20.03,-0.44 C21.3,-0.88 22.41,-1.49 23.37,-2.27 C24.33,-3.04 25.09,-3.98 25.65,-5.1 C26.21,-6.21 26.49,-7.49 26.49,-8.92 C26.49,-10.4 26.19,-11.64 25.59,-12.65 C24.99,-13.66 24.21,-14.53 23.23,-15.25 C22.26,-15.97 21.15,-16.57 19.92,-17.07 C18.68,-17.57 17.43,-18.03 16.16,-18.45 C16.16,-18.45 16.16,-30.11 16.16,-30.11 C16.56,-30.09 16.99,-30.05 17.44,-30 C17.9,-29.94 18.35,-29.86 18.8,-29.75 C19.25,-29.64 19.68,-29.5 20.1,-29.34 C20.51,-29.17 20.88,-28.97 21.22,-28.73 C20.7,-28.25 20.32,-27.73 20.08,-27.15 C19.84,-26.58 19.72,-26.05 19.72,-25.55 C19.72,-25.15 19.8,-24.77 19.94,-24.42 C20.09,-24.07 20.3,-23.77 20.57,-23.51 C20.83,-23.25 21.15,-23.05 21.52,-22.9 C21.89,-22.75 22.29,-22.68 22.73,-22.68 C23.08,-22.68 23.45,-22.73 23.83,-22.85 C24.2,-22.96 24.55,-23.14 24.86,-23.38 C25.17,-23.63 25.43,-23.95 25.62,-24.34 C25.81,-24.72 25.91,-25.2 25.91,-25.77 C25.91,-26.62 25.67,-27.43 25.19,-28.19 C24.71,-28.95 24.05,-29.63 23.19,-30.22 C22.33,-30.81 21.31,-31.28 20.11,-31.64 C18.91,-32 17.6,-32.21 16.16,-32.26 C16.16,-32.26 16.16,-37.04 16.16,-37.04 C16.16,-37.04 14.01,-37.04 14.01,-37.04 C14.01,-37.04 14.01,-32.21 14.01,-32.21 C12.62,-32.1 11.33,-31.82 10.11,-31.38 C8.9,-30.94 7.83,-30.34 6.92,-29.57 C6.01,-28.81 5.29,-27.88 4.77,-26.8 C4.24,-25.71 3.98,-24.45 3.98,-23.01 C3.98,-21.52 4.26,-20.27 4.82,-19.27 C5.38,-18.26 6.12,-17.42 7.04,-16.74 C7.96,-16.06 9.02,-15.48 10.21,-15.01 C11.4,-14.54 12.61,-14.09 13.87,-13.65 C13.87,-13.65 13.87,-1.66 13.87,-1.66z"/><g opacity="1" transform="matrix(0.5657392740249634,0,0,0.5657392740249634,0,0)"/></g></g></g></g><g transform="matrix(0.3081575930118561,0.04801807180047035,-0.04801807180047035,0.3081575930118561,430.99945068359375,520.4156494140625)" opacity="1" fill="rgb(33,34,105)" font-size="56.5739288330078" font-family="Javanese Text" font-style="normal" font-weight="400" aria-label="$" style="display: block;"><g stroke-linecap="butt" stroke-linejoin="round" stroke-miterlimit="4" transform="matrix(1,0,0,1,-14.765795707702637,0)" opacity="1" style="display: inherit;"><g><g transform="matrix(1,0,0,1,0,0)" opacity="1" style="display: block;"><path d=" M21.09,-4.99 C20.81,-4.33 20.41,-3.78 19.92,-3.33 C19.42,-2.88 18.83,-2.52 18.16,-2.27 C17.49,-2.01 16.78,-1.83 16.02,-1.74 C16.02,-1.74 16.02,-12.98 16.02,-12.98 C16.94,-12.65 17.75,-12.31 18.44,-11.95 C19.13,-11.59 19.7,-11.19 20.15,-10.76 C20.6,-10.33 20.94,-9.83 21.17,-9.27 C21.4,-8.71 21.52,-8.05 21.52,-7.29 C21.52,-6.41 21.38,-5.64 21.09,-4.99z M8.84,-26.89 C9.13,-27.55 9.54,-28.09 10.05,-28.54 C10.57,-28.98 11.16,-29.32 11.84,-29.56 C12.51,-29.8 13.23,-29.96 14.01,-30.05 C14.01,-30.05 14.01,-19.06 14.01,-19.06 C13.03,-19.41 12.19,-19.75 11.49,-20.08 C10.79,-20.41 10.21,-20.78 9.75,-21.19 C9.29,-21.59 8.95,-22.07 8.73,-22.61 C8.51,-23.15 8.4,-23.8 8.4,-24.56 C8.4,-25.46 8.54,-26.24 8.84,-26.89z M13.87,-1.66 C12.93,-1.69 11.93,-1.85 10.88,-2.13 C9.83,-2.4 8.89,-2.89 8.04,-3.59 C8.63,-4.01 9.06,-4.51 9.32,-5.08 C9.59,-5.65 9.72,-6.26 9.72,-6.91 C9.72,-7.46 9.63,-7.94 9.45,-8.36 C9.26,-8.77 9.02,-9.11 8.72,-9.38 C8.41,-9.64 8.07,-9.84 7.68,-9.97 C7.29,-10.1 6.89,-10.17 6.46,-10.17 C5.41,-10.17 4.58,-9.82 3.96,-9.14 C3.35,-8.46 3.04,-7.62 3.04,-6.63 C3.04,-5.71 3.31,-4.83 3.84,-3.99 C4.37,-3.15 5.12,-2.41 6.08,-1.75 C7.03,-1.1 8.18,-0.57 9.5,-0.17 C10.83,0.24 12.28,0.46 13.87,0.5 C13.87,0.5 13.87,5.53 13.87,5.53 C13.87,5.53 16.02,5.53 16.02,5.53 C16.02,5.53 16.02,0.41 16.02,0.41 C17.42,0.29 18.76,0 20.03,-0.44 C21.3,-0.88 22.41,-1.49 23.37,-2.27 C24.33,-3.04 25.09,-3.98 25.65,-5.1 C26.21,-6.21 26.49,-7.49 26.49,-8.92 C26.49,-10.4 26.19,-11.64 25.59,-12.65 C24.99,-13.66 24.21,-14.53 23.23,-15.25 C22.26,-15.97 21.15,-16.57 19.92,-17.07 C18.68,-17.57 17.43,-18.03 16.16,-18.45 C16.16,-18.45 16.16,-30.11 16.16,-30.11 C16.56,-30.09 16.99,-30.05 17.44,-30 C17.9,-29.94 18.35,-29.86 18.8,-29.75 C19.25,-29.64 19.68,-29.5 20.1,-29.34 C20.51,-29.17 20.88,-28.97 21.22,-28.73 C20.7,-28.25 20.32,-27.73 20.08,-27.15 C19.84,-26.58 19.72,-26.05 19.72,-25.55 C19.72,-25.15 19.8,-24.77 19.94,-24.42 C20.09,-24.07 20.3,-23.77 20.57,-23.51 C20.83,-23.25 21.15,-23.05 21.52,-22.9 C21.89,-22.75 22.29,-22.68 22.73,-22.68 C23.08,-22.68 23.45,-22.73 23.83,-22.85 C24.2,-22.96 24.55,-23.14 24.86,-23.38 C25.17,-23.63 25.43,-23.95 25.62,-24.34 C25.81,-24.72 25.91,-25.2 25.91,-25.77 C25.91,-26.62 25.67,-27.43 25.19,-28.19 C24.71,-28.95 24.05,-29.63 23.19,-30.22 C22.33,-30.81 21.31,-31.28 20.11,-31.64 C18.91,-32 17.6,-32.21 16.16,-32.26 C16.16,-32.26 16.16,-37.04 16.16,-37.04 C16.16,-37.04 14.01,-37.04 14.01,-37.04 C14.01,-37.04 14.01,-32.21 14.01,-32.21 C12.62,-32.1 11.33,-31.82 10.11,-31.38 C8.9,-30.94 7.83,-30.34 6.92,-29.57 C6.01,-28.81 5.29,-27.88 4.77,-26.8 C4.24,-25.71 3.98,-24.45 3.98,-23.01 C3.98,-21.52 4.26,-20.27 4.82,-19.27 C5.38,-18.26 6.12,-17.42 7.04,-16.74 C7.96,-16.06 9.02,-15.48 10.21,-15.01 C11.4,-14.54 12.61,-14.09 13.87,-13.65 C13.87,-13.65 13.87,-1.66 13.87,-1.66z"/><g opacity="1" transform="matrix(0.5657392740249634,0,0,0.5657392740249634,0,0)"/></g></g></g></g><g transform="matrix(-0.0043299500830471516,0.01708715222775936,-0.01708715222775936,-0.0043299500830471516,521.399169921875,542.73095703125)" opacity="1" style="display: block;"><g opacity="1" transform="matrix(1,0,0,1,0,0)"><path fill="rgb(209,209,255)" fill-opacity="1" d=" M235.78900146484375,-298.156005859375 C235.78900146484375,-298.156005859375 74.18099975585938,-367.9070129394531 74.18099975585938,-367.9070129394531 C72.48100280761719,-368.6409912109375 71.6969985961914,-370.614990234375 72.43099975585938,-372.31500244140625 C72.43099975585938,-372.31500244140625 112.7979965209961,-465.843994140625 112.7979965209961,-465.843994140625 C113.53199768066406,-467.54400634765625 115.50599670410156,-468.3280029296875 117.20600128173828,-467.593994140625 C117.20600128173828,-467.593994140625 278.81500244140625,-397.843994140625 278.81500244140625,-397.843994140625 C280.5150146484375,-397.1099853515625 281.29901123046875,-395.135986328125 280.56500244140625,-393.4360046386719 C280.56500244140625,-393.4360046386719 240.19700622558594,-299.906005859375 240.19700622558594,-299.906005859375 C239.46299743652344,-298.20599365234375 237.48899841308594,-297.4219970703125 235.78900146484375,-298.156005859375z M238.8679962158203,-296.8280029296875 C238.8679962158203,-296.8280029296875 71.10199737548828,-369.2359924316406 71.10199737548828,-369.2359924316406 C71.10199737548828,-369.2359924316406 114.12699890136719,-468.9230041503906 114.12699890136719,-468.9230041503906 C114.12699890136719,-468.9230041503906 281.8940124511719,-396.5150146484375 281.8940124511719,-396.5150146484375 C281.8940124511719,-396.5150146484375 238.8679962158203,-296.8280029296875 238.8679962158203,-296.8280029296875z"/></g><g opacity="1" transform="matrix(1,0,0,1,0,0)"><path fill="rgb(88,91,212)" fill-opacity="1" d=" M235.78900146484375,-298.156005859375 C235.78900146484375,-298.156005859375 74.18099975585938,-367.9070129394531 74.18099975585938,-367.9070129394531 C72.48100280761719,-368.6409912109375 71.6969985961914,-370.614990234375 72.43099975585938,-372.31500244140625 C72.43099975585938,-372.31500244140625 112.7979965209961,-465.843994140625 112.7979965209961,-465.843994140625 C113.53199768066406,-467.54400634765625 115.50599670410156,-468.3280029296875 117.20600128173828,-467.593994140625 C117.20600128173828,-467.593994140625 278.81500244140625,-397.843994140625 278.81500244140625,-397.843994140625 C280.5150146484375,-397.1099853515625 281.29901123046875,-395.135986328125 280.56500244140625,-393.4360046386719 C280.56500244140625,-393.4360046386719 240.19700622558594,-299.906005859375 240.19700622558594,-299.906005859375 C239.46299743652344,-298.20599365234375 237.48899841308594,-297.4219970703125 235.78900146484375,-298.156005859375z M271.5559997558594,-372.56298828125 C271.5559997558594,-372.56298828125 103.78900146484375,-444.97100830078125 103.78900146484375,-444.97100830078125 C103.78900146484375,-444.97100830078125 118.13099670410156,-478.20001220703125 118.13099670410156,-478.20001220703125 C118.13099670410156,-478.20001220703125 285.89801025390625,-405.7919921875 285.89801025390625,-405.7919921875 C285.89801025390625,-405.7919921875 271.5559997558594,-372.56298828125 271.5559997558594,-372.56298828125z"/></g><g opacity="1" transform="matrix(1,0,0,1,0,0)"><g opacity="1" transform="matrix(1,0,0,1,0,0)"><path fill="rgb(255,255,255)" fill-opacity="1" d=" M141.82000732421875,-411.5429992675781 C141.82000732421875,-411.5429992675781 118.11399841308594,-421.77398681640625 118.11399841308594,-421.77398681640625 C118.11399841308594,-421.77398681640625 119.95099639892578,-426.02899169921875 119.95099639892578,-426.02899169921875 C119.95099639892578,-426.02899169921875 143.656005859375,-415.7980041503906 143.656005859375,-415.7980041503906 C143.656005859375,-415.7980041503906 141.82000732421875,-411.5429992675781 141.82000732421875,-411.5429992675781z"/></g><g opacity="1" transform="matrix(1,0,0,1,0,0)"><path fill="rgb(255,255,255)" fill-opacity="1" d=" M176.16299438476562,-396.7200012207031 C176.16299438476562,-396.7200012207031 152.45799255371094,-406.9519958496094 152.45799255371094,-406.9519958496094 C152.45799255371094,-406.9519958496094 154.29400634765625,-411.2070007324219 154.29400634765625,-411.2070007324219 C154.29400634765625,-411.2070007324219 178,-400.9750061035156 178,-400.9750061035156 C178,-400.9750061035156 176.16299438476562,-396.7200012207031 176.16299438476562,-396.7200012207031z"/></g><g opacity="1" transform="matrix(1,0,0,1,0,0)"><path fill="rgb(255,255,255)" fill-opacity="1" d=" M210.5070037841797,-381.89801025390625 C210.5070037841797,-381.89801025390625 186.80099487304688,-392.1289978027344 186.80099487304688,-392.1289978027344 C186.80099487304688,-392.1289978027344 188.63699340820312,-396.3840026855469 188.63699340820312,-396.3840026855469 C188.63699340820312,-396.3840026855469 212.343994140625,-386.1520080566406 212.343994140625,-386.1520080566406 C212.343994140625,-386.1520080566406 210.5070037841797,-381.89801025390625 210.5070037841797,-381.89801025390625z"/></g><g opacity="1" transform="matrix(1,0,0,1,0,0)"><path fill="rgb(255,255,255)" fill-opacity="1" d=" M244.8509979248047,-367.0740051269531 C244.8509979248047,-367.0740051269531 221.1439971923828,-377.3059997558594 221.1439971923828,-377.3059997558594 C221.1439971923828,-377.3059997558594 222.9810028076172,-381.5610046386719 222.9810028076172,-381.5610046386719 C222.9810028076172,-381.5610046386719 246.68699645996094,-371.3299865722656 246.68699645996094,-371.3299865722656 C246.68699645996094,-371.3299865722656 244.8509979248047,-367.0740051269531 244.8509979248047,-367.0740051269531z"/></g></g></g><g transform="matrix(0.9998517632484436,0,0,0.9998517632484436,499.97613525390625,499.953369140625)" opacity="1" style="display: none;"><g opacity="1" transform="matrix(1,0,0,1,0,0)"><path fill="rgb(88,91,212)" fill-opacity="1" d=" M-135.7050018310547,-314.5539855957031 C-135.7050018310547,-298.4580078125 -148.7530059814453,-285.4100036621094 -164.8489990234375,-285.4100036621094 C-180.94500732421875,-285.4100036621094 -193.99400329589844,-298.4580078125 -193.99400329589844,-314.5539855957031 C-193.99400329589844,-330.6499938964844 -180.94500732421875,-343.6990051269531 -164.8489990234375,-343.6990051269531 C-148.7530059814453,-343.6990051269531 -135.7050018310547,-330.6499938964844 -135.7050018310547,-314.5539855957031z"/></g><g opacity="1" transform="matrix(1,0,0,1,0,0)"><path fill="rgb(209,209,255)" fill-opacity="1" d=" M-128.4759979248047,-314.5539855957031 C-128.4759979248047,-298.4580078125 -141.52499389648438,-285.4100036621094 -157.62100219726562,-285.4100036621094 C-173.7169952392578,-285.4100036621094 -186.76499938964844,-298.4580078125 -186.76499938964844,-314.5539855957031 C-186.76499938964844,-330.6499938964844 -173.7169952392578,-343.6990051269531 -157.62100219726562,-343.6990051269531 C-141.52499389648438,-343.6990051269531 -128.4759979248047,-330.6499938964844 -128.4759979248047,-314.5539855957031z"/></g><g opacity="1" transform="matrix(1,0,0,1,0,0)"><path fill="rgb(88,91,212)" fill-opacity="1" d=" M-139.4340057373047,-314.5539855957031 C-139.4340057373047,-304.510009765625 -147.57699584960938,-296.3680114746094 -157.62100219726562,-296.3680114746094 C-167.6649932861328,-296.3680114746094 -175.8070068359375,-304.510009765625 -175.8070068359375,-314.5539855957031 C-175.8070068359375,-324.5979919433594 -167.6649932861328,-332.7409973144531 -157.62100219726562,-332.7409973144531 C-147.57699584960938,-332.7409973144531 -139.4340057373047,-324.5979919433594 -139.4340057373047,-314.5539855957031z"/></g></g><g transform="matrix(0,0,0,0,528.7650146484375,583.4450073242188)" opacity="1" fill="rgb(255,255,255)" font-size="27.8229293823242" font-family="Inter" font-style="normal" font-weight="normal" aria-label="$" style="display: block;"><g stroke-linecap="butt" stroke-linejoin="round" stroke-miterlimit="4" transform="matrix(1,0,0,1,0,0)" opacity="1" style="display: inherit;"><g><g transform="matrix(1,0,0,1,0,0)" opacity="1" style="display: block;"><path d=" M7.15,-7.85 C8.57,-6.87 9.46,-6.12 9.82,-5.58 C10.17,-5.05 10.35,-4.48 10.35,-3.89 C10.35,-3.31 10.2,-2.76 9.91,-2.25 C9.62,-1.74 9.22,-1.32 8.71,-1.01 C8.35,-0.79 7.83,-0.62 7.15,-0.5 C7.15,-0.5 7.15,-7.85 7.15,-7.85z M4.2,-13.32 C3.8,-13.9 3.6,-14.51 3.6,-15.17 C3.6,-15.88 3.82,-16.47 4.26,-16.93 C4.7,-17.4 5.37,-17.69 6.28,-17.8 C6.28,-17.8 6.28,-11.48 6.28,-11.48 C5.29,-12.13 4.6,-12.75 4.2,-13.32z M1.47,-0.69 C2.35,-0.33 3.17,-0.07 3.9,0.09 C4.63,0.25 5.43,0.34 6.28,0.38 C6.28,0.38 6.28,2.12 6.28,2.12 C6.28,2.12 7.15,2.12 7.15,2.12 C7.15,2.12 7.15,0.38 7.15,0.38 C8.83,0.24 10.15,-0.31 11.09,-1.26 C12.04,-2.21 12.51,-3.31 12.51,-4.56 C12.51,-5.69 12.19,-6.63 11.54,-7.38 C10.89,-8.14 9.43,-9.31 7.15,-10.91 C7.15,-10.91 7.15,-17.81 7.15,-17.81 C8.4,-17.68 9.35,-17.29 9.98,-16.62 C10.61,-15.96 10.98,-14.9 11.1,-13.46 C11.1,-13.46 11.63,-13.46 11.63,-13.46 C11.63,-13.46 11.63,-17.53 11.63,-17.53 C10.15,-18.09 9.28,-18.4 9.02,-18.46 C8.51,-18.59 7.89,-18.68 7.15,-18.72 C7.15,-18.72 7.15,-19.97 7.15,-19.97 C7.15,-19.97 6.28,-19.97 6.28,-19.97 C6.28,-19.97 6.28,-18.72 6.28,-18.72 C4.74,-18.55 3.55,-18.05 2.72,-17.21 C1.9,-16.38 1.48,-15.41 1.48,-14.29 C1.48,-13.3 1.72,-12.47 2.2,-11.78 C2.88,-10.81 4.24,-9.7 6.28,-8.44 C6.28,-8.44 6.28,-0.5 6.28,-0.5 C4.93,-0.63 3.91,-1.02 3.23,-1.68 C2.55,-2.35 2.16,-3.3 2.07,-4.54 C2.07,-4.54 1.47,-4.54 1.47,-4.54 C1.47,-4.54 1.47,-0.69 1.47,-0.69z"/><g opacity="1" transform="matrix(0.278229296207428,0,0,0.278229296207428,0,0)"/></g></g></g></g><g transform="matrix(1,0,0,1,500,500)" opacity="1" style="display: block;"><g opacity="1" transform="matrix(1,0,0,1,0,0)"><path fill="rgb(33,34,104)" fill-opacity="1" d=" M87.55400085449219,1.8589999675750732 C87.55400085449219,1.8589999675750732 202.11300659179688,60.90599822998047 202.11300659179688,60.90599822998047 C226.0449981689453,73.24099731445312 237.25399780273438,101.30599975585938 228.40199279785156,126.73400115966797 C228.40199279785156,126.73400115966797 135.74600219726562,392.8999938964844 135.74600219726562,392.8999938964844 C135.74600219726562,392.8999938964844 -191.95799255371094,392.8999938964844 -191.95799255371094,392.8999938964844 C-191.95799255371094,392.8999938964844 -144.0489959716797,17.88599967956543 -144.0489959716797,17.88599967956543 C-144.0489959716797,17.88599967956543 -19.38599967956543,-16.95800018310547 -19.38599967956543,-16.95800018310547 C-19.38599967956543,-16.95800018310547 87.55400085449219,1.8589999675750732 87.55400085449219,1.8589999675750732z"/></g></g><g transform="matrix(0.9999580383300781,0.00916113331913948,-0.00916113331913948,0.9999580383300781,485.43194580078125,482.69964599609375)" opacity="1" style="display: block;"><g opacity="1" transform="matrix(1,0,0,1,0,0)"><path fill="rgb(33,34,104)" fill-opacity="1" d=" M123.16799926757812,-70.76799774169922 C123.16799926757812,-70.76799774169922 180.53900146484375,-105.19100189208984 199.8159942626953,-140.072998046875 C219.09300231933594,-174.95399475097656 217.71499633789062,-207.54100036621094 189.71800231933594,-219.4739990234375 C189.71800231933594,-219.4739990234375 183.68800354003906,-243.33999633789062 162.60699462890625,-254.35499572753906 C141.5260009765625,-265.3710021972656 119.49700164794922,-260.3219909667969 111.69400024414062,-268.125 C103.89099884033203,-275.927001953125 94.25199890136719,-280.5169982910156 85.99099731445312,-280.5169982910156 C77.7300033569336,-280.5169982910156 72.68199920654297,-269.50201416015625 72.68199920654297,-261.6990051269531 C72.68199920654297,-261.6990051269531 46.979000091552734,-285.56500244140625 38.71799850463867,-297.9570007324219 C30.457000732421875,-310.3500061035156 7.9670000076293945,-328.7080078125 -3.506999969482422,-317.2340087890625 C-14.980999946594238,-305.760009765625 -29.667999267578125,-241.04600524902344 25.408000946044922,-206.6230010986328 C80.48400115966797,-172.2010040283203 123.16799926757812,-70.76799774169922 123.16799926757812,-70.76799774169922z"/></g><g opacity="1" transform="matrix(1,0,0,1,0,0)"><g opacity="1" transform="matrix(1,0,0,1,0,0)"><path fill="rgb(250,215,178)" fill-opacity="1" d=" M25.408000946044922,-206.6230010986328 C25.408000946044922,-206.6230010986328 -14.52299976348877,-128.59800720214844 -9.932999610900879,-89.58599853515625 C-5.3429999351501465,-50.57400131225586 20.358999252319336,-44.14799880981445 20.358999252319336,-44.14799880981445 C20.358999252319336,-44.14799880981445 10.26200008392334,-7.431000232696533 -4.883999824523926,-1.0049999952316284 C-4.883999824523926,-1.0049999952316284 -17.735000610351562,43.51499938964844 28.16200065612793,55.448001861572266 C74.05899810791016,67.38099670410156 102.05500030517578,17.812000274658203 102.05500030517578,17.812000274658203 C102.05500030517578,17.812000274658203 97.00700378417969,-2.381999969482422 107.56300354003906,-29.920000076293945 C118.11900329589844,-57.45800018310547 123.16799926757812,-70.76799774169922 123.16799926757812,-70.76799774169922 C123.16799926757812,-70.76799774169922 111.69400024414062,-95.5530014038086 111.69400024414062,-95.5530014038086 C111.69400024414062,-95.5530014038086 117.20099639892578,-108.86299896240234 117.20099639892578,-108.86299896240234 C117.20099639892578,-108.86299896240234 148.41200256347656,-107.0260009765625 157.59100341796875,-127.22100067138672 C166.77000427246094,-147.41600036621094 165.39300537109375,-170.822998046875 136.0189971923828,-161.18499755859375 C136.0189971923828,-161.18499755859375 144.27999877929688,-187.80499267578125 144.27999877929688,-187.80499267578125 C144.27999877929688,-187.80499267578125 93.79399871826172,-169.906005859375 25.408000946044922,-206.6230010986328z"/></g><g opacity="1" transform="matrix(1,0,0,1,0,0)"><g opacity="1" transform="matrix(1,0,0,1,0,0)"><path fill="rgb(217,187,154)" fill-opacity="1" d=" M82.30899810791016,-73.27200317382812 C81.95899963378906,-71.46199798583984 59.79899978637695,40.487998962402344 10.258999824523926,47.46799850463867 C-13.920999526977539,30.327999114990234 -4.880000114440918,-1.0019999742507935 -4.880000114440918,-1.0019999742507935 C10.260000228881836,-7.432000160217285 20.358999252319336,-44.152000427246094 20.358999252319336,-44.152000427246094 C20.358999252319336,-44.152000427246094 -5.341000080108643,-50.571998596191406 -9.930999755859375,-89.58200073242188 C-10.401000022888184,-93.58200073242188 -10.401000022888184,-97.99199676513672 -10.031000137329102,-102.69200134277344 C-8.66100025177002,-93.63200378417969 -1.8009999990463257,-57.29199981689453 21.27899932861328,-52.87200164794922 C47.479000091552734,-47.86199951171875 81.8290023803711,-72.93199920654297 82.30899810791016,-73.27200317382812z"/></g></g></g><g opacity="1" transform="matrix(1,0,0,1,0,0)"><g opacity="1" transform="matrix(1,0,0,1,0,0)"><path stroke-linecap="round" stroke-linejoin="round" fill-opacity="0" stroke="rgb(33,34,104)" stroke-opacity="1" stroke-width="0.5" d=" M39.005001068115234,-160.32400512695312 C38.14799880981445,-153.781005859375 35.82500076293945,-145.67999267578125 31.145000457763672,-135.71200561523438 C31.145000457763672,-135.71200561523438 15.3100004196167,-141.56399536132812 15.3100004196167,-141.56399536132812 C15.3100004196167,-141.56399536132812 22.367000579833984,-118.6729965209961 22.367000579833984,-118.6729965209961"/></g><g opacity="1" transform="matrix(1,0,0,1,0,0)"><path stroke-linecap="round" stroke-linejoin="round" fill-opacity="0" stroke="rgb(33,34,104)" stroke-opacity="1" stroke-width="0.5" d=" M22.367000579833984,-184.0760040283203 C22.367000579833984,-184.0760040283203 36.99700164794922,-190.96099853515625 39.393001556396484,-167.22500610351562"/></g><g opacity="1" transform="matrix(1,0,0,1,0,0)"><path stroke-linecap="round" stroke-linejoin="round" fill-opacity="0" stroke="rgb(33,34,104)" stroke-opacity="1" stroke-width="0.5" d=" M69.18199920654297,-163.76600646972656 C69.18199920654297,-163.76600646972656 91.04000091552734,-185.968994140625 104.29299926757812,-155.677001953125"/></g><g opacity="1" transform="matrix(1,0,0,1,0,0)"><path stroke-linecap="round" stroke-linejoin="round" fill-opacity="0" stroke="rgb(33,34,104)" stroke-opacity="1" stroke-width="0.5" d=" M33.03799819946289,-94.06099700927734 C33.03799819946289,-94.06099700927734 42.15999984741211,-78.05500030517578 59.027000427246094,-99.56900024414062"/></g></g></g><g transform="matrix(1,0,0,1,500,500)" opacity="1" style="display: block;"><g opacity="1" transform="matrix(1,0,0,1,0,0)"><path fill="rgb(88,91,212)" fill-opacity="1" d=" M-135.56300354003906,16.545000076293945 C-120.81800079345703,16.809999465942383 -101.22599792480469,28.80900001525879 -89.40899658203125,82.85199737548828 C-82.57599639892578,114.10099792480469 -86.91600036621094,146.7899932861328 -101.59500122070312,175.21099853515625 C-101.59500122070312,175.21099853515625 -155.24000549316406,279.07598876953125 -155.24000549316406,279.07598876953125 C-155.24000549316406,279.07598876953125 58.28499984741211,330.4809875488281 58.28499984741211,330.4809875488281 C58.28499984741211,330.4809875488281 42.68000030517578,390.1470031738281 42.68000030517578,390.1470031738281 C42.68000030517578,390.1470031738281 -207.53500366210938,358.2170104980469 -207.53500366210938,358.2170104980469 C-230.61000061035156,355.1180114746094 -246.1439971923828,333.0379943847656 -241.23800659179688,310.27899169921875 C-225.89599609375,239.1199951171875 -192.7270050048828,96.7760009765625 -160.13099670410156,32.0880012512207 C-155.42999267578125,22.757999420166016 -146.00900268554688,16.357999801635742 -135.56300354003906,16.545000076293945z"/></g></g><g transform="matrix(1,0,0,1,500,500)" opacity="1" style="display: block;"><g opacity="1" transform="matrix(1,0,0,1,0,0)"><path fill="rgb(250,215,178)" fill-opacity="1" d=" M55.77799987792969,335.8599853515625 C55.77799987792969,335.8599853515625 96.197998046875,335.8599853515625 110.4260025024414,335.8599853515625 C124.65399932861328,335.8599853515625 182.48300170898438,323.135986328125 187.99099731445312,328.6440124511719 C193.49899291992188,334.1520080566406 152.6510009765625,350.21600341796875 152.6510009765625,350.21600341796875 C152.6510009765625,350.21600341796875 221.49600219726562,373.1650085449219 219.2010040283203,383.72100830078125 C216.906005859375,394.2770080566406 152.19200134277344,369.03399658203125 152.19200134277344,369.03399658203125 C152.19200134277344,369.03399658203125 216.906005859375,398.4079895019531 213.23399353027344,406.66900634765625 C209.56300354003906,414.92999267578125 149.43800354003906,385.5570068359375 149.43800354003906,385.5570068359375 C149.43800354003906,385.5570068359375 201.30099487304688,415.8489990234375 198.08799743652344,422.7330017089844 C194.875,429.61700439453125 140.7169952392578,402.53900146484375 140.7169952392578,402.53900146484375 C140.7169952392578,402.53900146484375 169.5919952392578,421.93701171875 167.33799743652344,424.1910095214844 C165.08399963378906,426.44500732421875 146.22500610351562,422.27398681640625 125.11299896240234,413.0950012207031 C104,403.9159851074219 57.54800033569336,385.9429931640625 42.68000030517578,385.9429931640625 C42.68000030517578,385.9429931640625 55.77799987792969,335.8599853515625 55.77799987792969,335.8599853515625z"/></g></g><g transform="matrix(0.9934052228927612,-0.11465634405612946,0.11465634405612946,0.9934052228927612,492.86077880859375,523.8779296875)" opacity="1" style="display: block;"><g opacity="1" transform="matrix(1,0,0,1,0,0)"><path fill="rgb(250,215,178)" fill-opacity="1" d=" M7.692999839782715,28.020999908447266 C7.692999839782715,28.020999908447266 9.071000099182129,-7.090000152587891 18.708999633789062,-19.48200035095215 C28.347000122070312,-31.874000549316406 68.52999877929688,-66.07099914550781 60.70399856567383,-78.1520004272461 C54.33599853515625,-87.98400115966797 44.5260009765625,-59.75699996948242 9.758999824523926,-62.85499954223633 C-25.007999420166016,-65.9530029296875 -28.80500030517578,-132.04400634765625 -28.80500030517578,-132.04400634765625 C-28.80500030517578,-132.04400634765625 -33.7859992980957,-145.125 -39.981998443603516,-133.24899291992188 C-46.178001403808594,-121.37300109863281 -42.04800033569336,-84.36900329589844 -42.04800033569336,-84.36900329589844 C-42.04800033569336,-84.36900329589844 -57.5369987487793,-89.8759994506836 -58.39799880981445,-66.125 C-58.39799880981445,-66.125 -74.57599639892578,-63.19900131225586 -70.61799621582031,-45.987998962402344 C-70.61799621582031,-45.987998962402344 -83.87100219726562,-44.611000061035156 -81.46099853515625,-31.013999938964844 C-79.0510025024414,-17.41699981689453 -53.92300033569336,2.0320000648498535 -48.58700180053711,28.020999908447266 C-48.58700180053711,28.020999908447266 7.692999839782715,28.020999908447266 7.692999839782715,28.020999908447266z"/></g></g><g transform="matrix(0.9934052228927612,-0.11465634405612946,0.11465634405612946,0.9934052228927612,492.86077880859375,523.8779296875)" opacity="1" style="display: block;"><g opacity="1" transform="matrix(1,0,0,1,0,0)"><path fill="rgb(88,91,212)" fill-opacity="1" d=" M121.97599792480469,75.16600036621094 C121.97599792480469,75.16600036621094 9.758999824523926,167.41799926757812 9.758999824523926,167.41799926757812 C9.758999824523926,167.41799926757812 9.758999824523926,15.270000457763672 9.758999824523926,15.270000457763672 C9.758999824523926,15.270000457763672 -50.82500076293945,15.270000457763672 -50.82500076293945,15.270000457763672 C-50.82500076293945,15.270000457763672 -73.08599853515625,261.14599609375 -73.08599853515625,261.14599609375 C-76.2760009765625,296.3819885253906 -36.926998138427734,319.3559875488281 -7.809999942779541,299.25799560546875 C-7.809999942779541,299.25799560546875 204.26199340820312,175.7449951171875 204.26199340820312,175.7449951171875 C227.49099731445312,161.00599670410156 241.75100708007812,102.52999877929688 222.78500366210938,78.0780029296875 C207.23699951171875,58.03200149536133 177.03399658203125,35.229000091552734 121.97599792480469,75.16600036621094z"/></g></g><g transform="matrix(0.9997700452804565,0.02144673466682434,-0.02144673466682434,0.9997700452804565,561.254638671875,338.7782287597656)" opacity="1" style="display: block;"><g opacity="1" transform="matrix(1,0,0,1,0,0)"><path fill="rgb(33,34,104)" fill-opacity="1" d=" M5.048999786376953,0 C5.048999786376953,2.7880001068115234 2.7880001068115234,5.048999786376953 0,5.048999786376953 C-2.7880001068115234,5.048999786376953 -5.048999786376953,2.7880001068115234 -5.048999786376953,0 C-5.048999786376953,-2.7880001068115234 -2.7880001068115234,-5.048999786376953 0,-5.048999786376953 C2.7880001068115234,-5.048999786376953 5.048999786376953,-2.7880001068115234 5.048999786376953,0z"/></g></g><g transform="matrix(0.9997700452804565,0.02144673466682434,-0.02144673466682434,0.9997700452804565,513.9631958007812,320.376220703125)" opacity="1" style="display: block;"><g opacity="1" transform="matrix(1,0,0,1,0,0)"><path fill="rgb(33,34,104)" fill-opacity="1" d=" M5.048999786376953,0 C5.048999786376953,2.7880001068115234 2.7880001068115234,5.048999786376953 0,5.048999786376953 C-2.7880001068115234,5.048999786376953 -5.048999786376953,2.7880001068115234 -5.048999786376953,0 C-5.048999786376953,-2.7880001068115234 -2.7880001068115234,-5.048999786376953 0,-5.048999786376953 C2.7880001068115234,-5.048999786376953 5.048999786376953,-2.7880001068115234 5.048999786376953,0z"/></g></g></g></svg>